<?xml version="1.0" encoding="iso-8859-1"?>
<!-- Uploaded to: SVG Repo, www.svgrepo.com, Generator: SVG Repo Mixer Tools -->
<svg height="800px" width="800px" version="1.1" id="Layer_1" xmlns="http://www.w3.org/2000/svg" xmlns:xlink="http://www.w3.org/1999/xlink" 
	 viewBox="0 0 512 512" xml:space="preserve">
<g transform="translate(0 1)">
	<g>
		<path style="fill:#00DA6C;" d="M187.622,297.667h44.373c-10.24-26.453-15.36-58.027-17.92-91.307
			C156.902,108.227,66.449,65.56,34.022,75.8C95.462,117.613,117.649,231.107,187.622,297.667"/>
		<path style="fill:#00DA6C;" d="M297.702,205.507c-1.707,34.133-7.68,65.707-17.067,92.16h43.52
			c70.827-66.56,92.16-180.053,153.6-221.867C445.329,65.56,355.729,108.227,297.702,205.507"/>
		<path style="fill:#00DA6C;" d="M280.636,297.667c31.573-85.333,19.627-235.52-24.747-290.133
			c-45.227,51.2-56.32,203.093-23.893,290.133H280.636z"/>
	</g>
	<g>
		<path style="fill:#00AD55;" d="M292.582,108.227c5.12,31.573,6.827,64.853,5.12,97.28c16.213-28.16,35.84-51.2,55.467-69.973
			c8.533-46.933,17.067-90.453,39.253-119.467C368.529,16.067,325.862,50.2,292.582,108.227"/>
		<path style="fill:#00AD55;" d="M218.342,108.227c-32.427-58.027-75.093-92.16-98.987-92.16
			c23.04,29.013,30.72,72.533,39.253,119.467c19.627,18.773,39.253,42.667,55.467,70.827
			C212.369,173.08,213.222,138.947,218.342,108.227"/>
	</g>
	<polygon style="fill:#FFE100;" points="144.956,502.467 366.822,502.467 366.822,331.8 144.956,331.8 	"/>
	<polygon style="fill:#63D3FD;" points="366.822,408.6 307.089,468.333 255.889,417.133 204.689,468.333 144.956,408.6 
		144.956,357.4 204.689,417.133 255.889,365.933 307.089,417.133 366.822,357.4 	"/>
	<g>
		<polygon style="fill:#FFA800;" points="341.222,502.467 366.822,502.467 366.822,408.6 341.222,434.2 		"/>
		<polygon style="fill:#FFA800;" points="341.222,331.8 341.222,383 366.822,357.4 366.822,331.8 		"/>
	</g>
	<polygon style="fill:#3DB9F9;" points="341.222,434.2 366.822,408.6 366.822,357.4 341.222,383 	"/>
	<polygon style="fill:#FFE100;" points="136.422,331.8 375.356,331.8 375.356,297.667 136.422,297.667 	"/>
	<polygon style="fill:#FFA800;" points="349.756,331.8 375.356,331.8 375.356,297.667 349.756,297.667 	"/>
	<g>
		<polygon style="fill:#FFFFFF;" points="136.422,331.8 162.022,331.8 162.022,297.667 136.422,297.667 		"/>
		<polygon style="fill:#FFFFFF;" points="144.956,502.467 170.556,502.467 170.556,331.8 144.956,331.8 		"/>
	</g>
	<path d="M307.089,476.867c-2.56,0-4.267-0.853-5.973-2.56l-45.227-45.227l-45.227,45.227c-3.413,3.413-8.533,3.413-11.947,0
		l-59.733-59.733c-1.707-1.707-2.56-3.413-2.56-5.973v-51.2c0-3.413,1.707-6.827,5.12-7.68c3.413-1.707,6.827-0.853,9.387,1.707
		l53.76,53.76l45.227-45.227c3.413-3.413,8.533-3.413,11.947,0l45.227,45.227l53.76-53.76c2.56-2.56,5.973-3.413,9.387-1.707
		s5.12,4.267,5.12,7.68v51.2c0,2.56-0.853,4.267-2.56,5.973l-59.733,59.733C311.356,476.013,309.649,476.867,307.089,476.867z
		 M255.889,408.6c2.56,0,4.267,0.853,5.973,2.56l45.227,45.227l51.2-51.2V377.88l-45.227,45.227c-3.413,3.413-8.533,3.413-11.947,0
		l-45.227-45.227l-45.227,45.227c-3.413,3.413-8.533,3.413-11.947,0l-45.227-45.227v27.307l51.2,51.2l45.227-45.227
		C251.622,409.453,253.329,408.6,255.889,408.6z M366.822,408.6L366.822,408.6L366.822,408.6z"/>
	<path d="M375.356,340.333H136.422c-5.12,0-8.533-3.413-8.533-8.533v-34.133c0-5.12,3.413-8.533,8.533-8.533h238.933
		c5.12,0,8.533,3.413,8.533,8.533V331.8C383.889,336.92,380.476,340.333,375.356,340.333z M144.956,323.267h221.867V306.2H144.956
		V323.267z"/>
	<path d="M366.822,511H144.956c-5.12,0-8.533-3.413-8.533-8.533V331.8c0-5.12,3.413-8.533,8.533-8.533h221.867
		c5.12,0,8.533,3.413,8.533,8.533v170.667C375.356,507.587,371.942,511,366.822,511z M153.489,493.933h204.8v-153.6h-204.8V493.933z
		"/>
	<path d="M409.489,511h-307.2c-5.12,0-8.533-3.413-8.533-8.533c0-5.12,3.413-8.533,8.533-8.533h307.2
		c5.12,0,8.533,3.413,8.533,8.533C418.022,507.587,414.609,511,409.489,511z"/>
	<path d="M297.702,214.04c-0.853,0-1.707,0-2.56,0c-3.413-0.853-5.973-5.12-5.973-8.533c1.707-31.573,0-64.853-5.12-95.573
		c0-1.707,0-4.267,0.853-5.12c32.427-56.32,76.8-97.28,107.52-97.28c3.413,0,5.973,1.707,7.68,5.12s0.853,6.827-0.853,9.387
		c-22.187,28.16-29.867,72.533-37.547,116.053c0,1.707-0.853,3.413-2.56,4.267c-20.48,19.627-38.4,42.667-53.76,68.267
		C303.676,213.187,301.116,214.04,297.702,214.04z M301.969,109.933c3.413,21.333,5.12,43.52,5.12,66.56
		c11.093-16.213,23.893-30.72,38.4-44.373c5.973-34.987,12.8-70.827,27.307-99.84C353.169,42.52,325.862,68.12,301.969,109.933z"/>
	<path d="M214.076,214.893c-2.56,0-5.973-1.707-7.68-4.267c-15.36-25.6-33.28-48.64-53.76-69.12c-1.707-0.853-2.56-2.56-2.56-4.267
		c-7.68-42.667-15.36-87.893-37.547-116.053c-1.707-2.56-2.56-5.973-0.853-8.533c1.707-3.413,4.267-5.12,7.68-5.12
		c30.72,0,75.093,40.107,106.667,96.427c0.853,1.707,1.707,3.413,0.853,5.12c-5.12,30.72-5.973,64-4.267,96.427
		c0,4.267-2.56,7.68-5.973,8.533C215.782,214.893,214.929,214.893,214.076,214.893z M166.289,131.267
		c13.653,13.653,26.453,28.16,38.4,44.373c0-22.187,1.707-45.227,5.12-66.56c-23.893-40.96-51.2-66.56-70.827-77.653
		C153.489,60.44,160.316,96.28,166.289,131.267z"/>
	<path d="M231.996,306.2h-44.373c-2.56,0-4.267-0.853-5.973-2.56c-35.84-33.28-58.027-76.8-80.213-119.467
		c-22.187-41.813-42.667-81.92-72.533-101.547c-2.56-1.707-3.413-5.12-3.413-7.68c0.853-3.413,2.56-5.973,5.973-7.68
		c19.627-5.973,52.907,3.413,87.893,25.6c40.107,25.6,75.947,64,102.4,108.373c0.853,0.853,0.853,2.56,0.853,3.413
		c2.56,34.133,8.533,64.853,17.067,88.747c0.853,2.56,0.853,5.973-0.853,7.68C237.116,304.493,234.556,306.2,231.996,306.2z
		 M191.036,289.133h29.013c-7.68-23.04-11.947-50.347-14.507-80.213c-46.08-76.8-110.933-117.76-148.48-124.587
		c23.893,23.893,41.813,57.173,59.733,93.013C138.129,216.6,159.462,258.413,191.036,289.133z"/>
	<path d="M230.289,306.2c-1.707,0-4.267-0.853-5.973-2.56c-34.987-33.28-56.32-76.8-75.947-118.613
		c-16.213-33.28-30.72-64-51.2-86.187c-3.413-3.413-3.413-8.533,0-11.947s8.533-3.413,11.947,0
		c22.187,23.893,37.547,56.32,54.613,90.453c19.627,40.107,39.253,81.92,72.533,113.493c3.413,3.413,3.413,8.533,0,11.947
		C234.556,305.347,232.849,306.2,230.289,306.2z"/>
	<path d="M324.156,306.2h-43.52c-2.56,0-5.12-1.707-6.827-3.413c-1.707-2.56-1.707-5.12-0.853-7.68
		c9.387-23.893,15.36-55.467,17.067-89.6c0-1.707,0.853-2.56,0.853-4.267c58.88-99.84,151.893-145.92,189.44-133.973
		c3.413,0.853,5.12,3.413,5.973,6.827s-0.853,6.827-3.413,8.533c-29.867,20.48-50.347,59.733-72.533,101.547
		c-22.187,41.813-45.227,86.187-80.213,119.467C328.422,305.347,325.862,306.2,324.156,306.2z M292.582,289.133h28.16
		c31.573-30.72,53.76-72.533,74.24-112.64c18.773-35.84,35.84-69.12,59.733-93.013c-37.547,6.827-102.4,47.787-148.48,124.587
		C304.529,237.933,299.409,266.093,292.582,289.133z"/>
	<path d="M282.342,306.2c-2.56,0-4.267-0.853-5.973-2.56c-3.413-3.413-3.413-8.533,0-11.947
		c33.28-31.573,54.613-72.533,75.947-111.787c22.187-42.667,43.52-82.773,76.8-104.96c4.267-2.56,9.387-1.707,11.947,2.56
		c2.56,4.267,1.707,9.387-2.56,11.947c-29.867,20.48-50.347,58.027-71.68,98.987c-21.333,40.96-43.52,82.773-79.36,116.053
		C286.609,305.347,284.049,306.2,282.342,306.2z"/>
	<path d="M280.636,306.2h-48.64c-3.413,0-6.827-2.56-7.68-5.12c-34.133-91.307-21.333-244.907,25.6-298.667
		C250.769-0.147,253.329-1,255.889-1s5.12,0.853,6.827,3.413c46.08,56.32,59.733,209.92,25.6,298.667
		C287.462,303.64,284.049,306.2,280.636,306.2z M237.969,289.133h36.693c27.307-79.36,17.067-210.773-18.773-267.093
		C219.196,76.653,209.809,208.067,237.969,289.133z"/>
	<path d="M255.889,306.2c-5.12,0-8.533-3.413-8.533-8.533V109.933c0-5.12,3.413-8.533,8.533-8.533c5.12,0,8.533,3.413,8.533,8.533
		v187.733C264.422,302.787,261.009,306.2,255.889,306.2z"/>
</g>
</svg>